<mxfile host="app.diagrams.net" modified="2023-03-24T14:14:00.979Z" agent="Mozilla/5.0 (Macintosh; Intel Mac OS X 10_15_7) AppleWebKit/605.1.15 (KHTML, like Gecko) Version/16.3 Safari/605.1.15" version="21.1.0" etag="oNZa-eMZ5yoPnPIzfjrP" type="github">
  <diagram name="Страница 1" id="dUnlWxYea_vv7OtEWN93">
    <mxGraphModel>
      <root>
        <mxCell id="0" />
        <mxCell id="1" parent="0" />
      </root>
    </mxGraphModel>
  </diagram>
</mxfile>
